<?xml version="1.0" encoding="UTF-8"?>
<svg id="Layer_1" data-name="Layer 1" xmlns="http://www.w3.org/2000/svg" viewBox="360 417 1439 365">
  
  
  <g>
    <g>
      <path fill="#000000"  d="M868.88,554.27c19.54,0,33.75,4.26,42.65,12.78,8.89,8.52,13.34,22.17,13.34,40.96v90.19c0,18.79-4.45,32.45-13.34,40.96-8.9,8.52-23.11,12.78-42.65,12.78h-46.22c-29.82,0-47.98-11.4-54.49-34.2v27.06c0,4.76-2.63,7.14-7.89,7.14h-33.44c-5.26,0-7.89-2.38-7.89-7.14v-263.8c0-4.75,2.63-7.14,7.89-7.14h39.83c5.01,0,7.52,2.38,7.52,7.14v99.58c8.27-17.53,25.42-26.3,51.48-26.3h43.22ZM842.2,707.22c6.01,0,10.77-.31,14.28-.94,3.51-.62,6.26-1.75,8.27-3.38,2-1.63,3.32-3.95,3.95-6.95.62-3.01.94-7.01.94-12.03v-61.63c0-4.76-.32-8.7-.94-11.84-.63-3.13-1.94-5.51-3.95-7.14-2.01-1.63-4.76-2.75-8.27-3.38-3.51-.62-8.27-.94-14.28-.94h-33.44c-12.53,0-21.42,2.51-26.68,7.52-5.26,5.01-7.89,12.78-7.89,23.3v46.6c0,10.52,2.63,18.29,7.89,23.3,5.26,5.01,14.15,7.52,26.68,7.52h33.44Z"/>
      <path fill="#000000"  d="M971.09,485.88c0-4.76,2.63-7.14,7.89-7.14h39.83c5.01,0,7.52,2.38,7.52,7.14v30.81c0,4.76-2.51,7.14-7.52,7.14h-39.83c-5.26,0-7.89-2.38-7.89-7.14v-30.81ZM971.09,561.41c0-4.76,2.63-7.14,7.89-7.14h39.83c5.01,0,7.52,2.38,7.52,7.14v183.38c0,4.76-2.51,7.14-7.52,7.14h-39.83c-5.26,0-7.89-2.38-7.89-7.14v-183.38Z"/>
      <path fill="#000000"  d="M1223.24,622.29c0-4.76-.32-8.7-.94-11.84-.63-3.13-1.94-5.51-3.95-7.14-2.01-1.63-4.76-2.75-8.27-3.38-3.51-.62-8.27-.94-14.28-.94h-28.18c-12.53,0-21.42,2.51-26.68,7.52-5.26,5.01-7.89,12.78-7.89,23.3v114.99c0,4.76-2.51,7.14-7.52,7.14h-39.83c-5.26,0-7.89-2.38-7.89-7.14v-183.38c0-4.76,2.63-7.14,7.89-7.14h33.44c5.26,0,7.89,2.38,7.89,7.14v27.06c6.51-22.79,24.67-34.2,54.49-34.2h40.96c19.54,0,33.76,4.26,42.65,12.78,8.89,8.52,13.34,22.17,13.34,40.96v136.78c0,4.76-2.51,7.14-7.52,7.14h-39.83c-5.26,0-7.89-2.38-7.89-7.14v-122.5Z"/>
      <path fill="#000000"  d="M1374.3,621.16c0,8.77,5.01,13.15,15.03,13.15h81.17c9.27,0,17.22.82,23.86,2.44,6.63,1.63,12.03,4.32,16.16,8.08,4.13,3.76,7.2,8.83,9.21,15.22,2,6.39,3.01,14.47,3.01,24.24v17.66c0,18.29-4.01,31.19-12.02,38.7-8.02,7.52-21.42,11.27-40.21,11.27h-102.96c-18.79,0-32.19-3.82-40.21-11.46-8.02-7.64-12.03-20.48-12.03-38.52v-5.64c0-5.01,2.5-7.52,7.52-7.52h38.7c5.01,0,7.52,2.51,7.52,7.52,0,4.26,1.06,7.2,3.19,8.83,2.13,1.63,5.57,2.44,10.33,2.44h69.14c5.26,0,9.21-1,11.84-3.01,2.63-2,3.95-5.51,3.95-10.52v-8.64c0-9.77-5.26-14.66-15.78-14.66h-80.79c-9.27,0-17.16-.75-23.67-2.26-6.52-1.5-11.84-4.19-15.97-8.08-4.13-3.88-7.2-9.02-9.21-15.41-2.01-6.39-3.01-14.47-3.01-24.24v-16.53c0-18.28,4-31.19,12.03-38.7,8.01-7.52,21.29-11.27,39.83-11.27h94.32c18.54,0,31.88,3.82,40.02,11.46,8.14,7.64,12.21,20.48,12.21,38.52v5.64c0,5.01-2.63,7.51-7.89,7.51h-38.33c-5.26,0-7.89-2.5-7.89-7.51,0-4.26-1.07-7.2-3.19-8.83-2.13-1.63-5.45-2.44-9.96-2.44h-60.88c-5.26,0-9.08,1-11.46,3.01-2.38,2.01-3.57,5.51-3.57,10.52v9.02Z"/>
      <path fill="#000000"  d="M1769.24,698.2c0,18.79-4.39,32.45-13.15,40.96-8.77,8.52-23.05,12.78-42.84,12.78h-97.7c-19.54,0-33.76-4.26-42.65-12.78-8.89-8.51-13.34-22.17-13.34-40.96v-90.19c0-18.79,4.45-32.44,13.34-40.96,8.89-8.51,23.11-12.78,42.65-12.78h97.7c19.79,0,34.07,4.26,42.84,12.78,8.77,8.52,13.15,22.17,13.15,40.96v90.19ZM1714,622.29c0-4.76-.32-8.7-.94-11.84-.63-3.13-1.88-5.51-3.76-7.14-1.88-1.63-4.64-2.75-8.27-3.38-3.63-.62-8.33-.94-14.09-.94h-44.72c-6.01,0-10.77.32-14.28.94-3.51.63-6.26,1.76-8.27,3.38-2.01,1.63-3.32,4.01-3.95,7.14-.63,3.14-.94,7.08-.94,11.84v61.63c0,5.01.31,9.02.94,12.03.62,3.01,1.94,5.32,3.95,6.95,2,1.63,4.76,2.76,8.27,3.38,3.51.63,8.27.94,14.28.94h44.72c5.76,0,10.46-.31,14.09-.94,3.63-.62,6.39-1.75,8.27-3.38,1.88-1.63,3.13-3.95,3.76-6.95.62-3.01.94-7.01.94-12.03v-61.63Z"/>
    </g>
    <g>
      <path fill="#000000"  d="M612.61,518.15h-116.36c-5.73,0-10.37,4.64-10.37,10.37v27.4c0,2.69,1.05,5.28,2.92,7.22l10.14,10.46c1.95,2.01,4.64,3.15,7.44,3.15h48.14c5.73,0,10.37,4.64,10.37,10.37v95.45c0,5.73-4.64,10.37-10.37,10.37h-95.92c-5.73,0-10.37-4.64-10.37-10.37v-47.91c0-2.75-1.09-5.39-3.04-7.33l-10.47-10.47c-1.94-1.94-4.58-3.04-7.33-3.04h-26.88c-5.73,0-10.37,4.64-10.37,10.37v66c0,5.73,4.64,10.37,10.37,10.37h32.48c5.73,0,10.37,4.64,10.37,10.37v30.67c0,5.73,4.64,10.37,10.37,10.37h158.87c5.73,0,10.37-4.64,10.37-10.37v-213.05c0-5.73-4.64-10.37-10.37-10.37Z"/>
      <path fill="#000000"  d="M400.57,593.29h35.32c2.75,0,5.39,1.09,7.33,3.04l22.81,22.81c1.94,1.94,3.04,4.58,3.04,7.33v35.57c0,5.73,4.64,10.37,10.37,10.37h54.43c5.73,0,10.37-4.64,10.37-10.37v-54.43c0-5.73-4.64-10.37-10.37-10.37h-35.57c-2.75,0-5.39-1.09-7.33-3.04l-22.57-22.57c-1.94-1.94-3.04-4.58-3.04-7.33v-106.38c0-5.73-4.64-10.37-10.37-10.37h-54.43c-5.73,0-10.37,4.64-10.37,10.37v124.99c0,5.73,4.64,10.37,10.37,10.37Z"/>
    </g>
  </g>
</svg>